<?xml version="1.0" encoding="utf-8"?>
<!-- Generator: Adobe Illustrator 24.0.1, SVG Export Plug-In . SVG Version: 6.00 Build 0)  -->
<svg version="1.1" id="Capa_1" xmlns="http://www.w3.org/2000/svg" xmlns:xlink="http://www.w3.org/1999/xlink" x="0px" y="0px"
	 viewBox="0 0 90.7 90.7" style="enable-background:new 0 0 90.7 90.7;" xml:space="preserve">
<style type="text/css">
	.st0{fill:#FFFFFF;}
	.st1{fill:#232B38;}
	.st2{display:none;}
	.st3{display:inline;}
</style>
<g id="icon" transform="translate(-1322.645 -2306.643)">
	<g id="bg">
		<path class="st0" d="M1368,2395.9c-2.3,0-4.4-0.9-6-2.5l-35.4-35.4c-1.6-1.6-2.5-3.7-2.5-6s0.9-4.4,2.5-6l35.4-35.4
			c1.6-1.6,3.7-2.5,6-2.5s4.4,0.9,6,2.5l35.4,35.4c1.6,1.6,2.5,3.7,2.5,6s-0.9,4.4-2.5,6l-35.4,35.4
			C1372.4,2395,1370.3,2395.9,1368,2395.9z"/>
		<path class="st1" d="M1368,2309.6c-1.9,0-3.6,0.7-4.9,2.1l-35.4,35.4c-1.3,1.3-2.1,3.1-2.1,4.9c0,1.9,0.7,3.6,2.1,5l35.4,35.4
			c1.3,1.3,3.1,2,4.9,2s3.6-0.7,4.9-2l35.4-35.4c1.3-1.3,2.1-3.1,2.1-5s-0.7-3.6-2.1-4.9l-35.4-35.4
			C1371.6,2310.4,1369.9,2309.6,1368,2309.6 M1368,2306.6c2.6,0,5.1,1,7.1,2.9l35.4,35.4c3.9,3.9,3.9,10.2,0,14.1l-35.4,35.4
			c-2,2-4.5,2.9-7.1,2.9s-5.1-1-7.1-2.9l-35.4-35.4c-3.9-3.9-3.9-10.2,0-14.1l35.4-35.4C1362.9,2307.6,1365.4,2306.6,1368,2306.6z"
			/>
	</g>
</g>
<g class="st2">
	<g class="st3">
		<path class="st1" d="M59.7,57.7c0,0.9,0,1.7,0,2.6c-9.6,0-19.1,0-28.7,0c0-1.3,0-2.6,0-3.9c0-0.7,0-1.5,0.1-2.2
			c0.3-1.3,1.1-2.5,2-3.4c0.5-0.5,1.1-0.9,1.8-1.2c1.5-0.7,3-1.4,4.5-2.2c1.1,2.2,2.1,4.5,3.2,6.7c0.6-1.5,1.1-3,1.7-4.5
			c0.7,0.2,1.3,0.2,2,0c0.5,1.4,1,2.8,1.6,4.2c1.1-2.2,2.1-4.4,3.2-6.6c1.6,0.8,3.2,1.5,4.8,2.3c1,0.5,1.9,1.3,2.6,2.2l0.5,0.8
			c0.4,0.7,0.6,1.4,0.7,2.2L59.7,57.7z M52,33.9l0.4,0.9c0.5,1.5,0.6,3.2,0.3,4.7c-0.4,2-1.3,3.9-2.6,5.4c-1,1.1-2.2,2-3.7,2.3
			c-1.4,0.3-2.9-0.1-4-0.9c-1.5-1-2.6-2.6-3.4-4.3c-0.8-1.8-1.1-3.9-0.8-5.9c0.2-1.6,1.1-3.1,2.4-4.1c1.5-1.2,3.5-1.7,5.4-1.6
			C50.1,30.4,51.6,33.2,52,33.9z"/>
	</g>
</g>
<path class="st1" d="M45,44.9c-2.2,0-4-0.7-5.4-2.1s-2.1-3.2-2.1-5.4c0-2.2,0.7-4,2.1-5.4c1.4-1.4,3.2-2.1,5.4-2.1s4,0.7,5.4,2.1
	c1.4,1.4,2.1,3.2,2.1,5.4c0,2.2-0.7,4-2.1,5.4S47.2,44.9,45,44.9z M29,60.9v-4.7c0-1.3,0.3-2.4,1-3.3c0.6-0.9,1.4-1.6,2.5-2
	c2.2-1,4.4-1.8,6.4-2.3s4.1-0.8,6.2-0.8s4.1,0.3,6.2,0.8s4.2,1.3,6.4,2.2c1,0.5,1.9,1.1,2.5,2c0.6,0.9,1,2,1,3.3v4.7H29z M32,57.9
	h26v-1.7c0-0.5-0.2-1-0.5-1.5c-0.3-0.5-0.7-0.8-1.2-1.1c-2.1-1-4.1-1.7-5.9-2.1c-1.8-0.4-3.6-0.6-5.5-0.6s-3.8,0.2-5.5,0.6
	c-1.8,0.4-3.8,1.1-5.9,2.1c-0.5,0.2-0.8,0.6-1.1,1.1s-0.5,1-0.5,1.5V57.9z M45,41.9c1.3,0,2.4-0.4,3.2-1.3s1.3-1.9,1.3-3.2
	s-0.4-2.4-1.3-3.2c-0.8-0.8-1.9-1.3-3.2-1.3s-2.4,0.4-3.2,1.3s-1.3,1.9-1.3,3.2c0,1.3,0.4,2.4,1.3,3.2C42.6,41.4,43.7,41.9,45,41.9z
	"/>
</svg>
