<?xml version="1.0" encoding="utf-8"?>
<!-- Generator: Adobe Illustrator 21.0.0, SVG Export Plug-In . SVG Version: 6.00 Build 0)  -->
<svg version="1.1" id="Capa_1" xmlns="http://www.w3.org/2000/svg" xmlns:xlink="http://www.w3.org/1999/xlink" x="0px" y="0px"
	 viewBox="0 0 34 34" style="enable-background:new 0 0 34 34;" xml:space="preserve">
<style type="text/css">
	.st0{fill:#FFFFFF;}
	.st1{fill:#EEBF00;}
</style>
<g id="iocn" transform="translate(-475.001 -4615)">
	<g id="bg">
		<path class="st0" d="M492,4648c-1.6,0-3.1-0.6-4.3-1.8l-10-10c-2.4-2.4-2.4-6.2,0-8.5l10-10c1.1-1.1,2.7-1.8,4.3-1.8
			c1.6,0,3.1,0.6,4.3,1.8l10,10c2.4,2.4,2.4,6.2,0,8.5l-10,10C495.1,4647.4,493.6,4648,492,4648z"/>
		<path class="st1" d="M492,4617c-1.3,0-2.6,0.5-3.6,1.5l-10,10c-2,2-2,5.2,0,7.1l10,10c1,1,2.2,1.5,3.6,1.5s2.6-0.5,3.6-1.5l10-10
			c2-2,2-5.2,0-7.1l-10-10C494.6,4617.5,493.3,4617,492,4617 M492,4615c1.8,0,3.6,0.7,5,2.1l10,10c2.8,2.8,2.8,7.2,0,10l-10,10
			c-1.4,1.4-3.2,2.1-5,2.1c-1.8,0-3.6-0.7-5-2.1l-10-10c-2.8-2.8-2.8-7.2,0-10l10-10C488.4,4615.7,490.2,4615,492,4615z"/>
	</g>
	<path id="_" class="st1" d="M499,4630c-0.2,0.2-0.5,0.4-0.7,0.6c-1.2,0.8-2.4,1.6-3.6,2.5c-0.6,0.5-1.4,0.9-2.2,1h0
		c-0.8-0.1-1.6-0.5-2.2-1c-1.2-0.9-2.4-1.7-3.6-2.5c-0.3-0.2-0.5-0.4-0.7-0.6v5.8c0,0.6,0.5,1.2,1.2,1.2h10.7c0.6,0,1.2-0.5,1.2-1.2
		L499,4630z M499,4627.9c0-0.6-0.5-1.2-1.2-1.2h-10.7c-0.6,0-1.2,0.5-1.2,1.2c0,0,0,0.1,0,0.1c0.2,0.8,0.6,1.4,1.2,1.8
		c1.1,0.8,2.3,1.6,3.4,2.4c0.5,0.3,1.3,1,1.9,1h0c0.6,0,1.4-0.7,1.9-1c1.1-0.8,2.3-1.6,3.4-2.4
		C498.5,4629.4,498.9,4628.7,499,4627.9L499,4627.9z"/>
</g>
</svg>
