<?xml version="1.0" encoding="utf-8"?>
<!-- Generator: Adobe Illustrator 24.0.1, SVG Export Plug-In . SVG Version: 6.00 Build 0)  -->
<svg version="1.1" id="Capa_1" xmlns="http://www.w3.org/2000/svg" xmlns:xlink="http://www.w3.org/1999/xlink" x="0px" y="0px"
	 viewBox="0 0 90.7 90.7" style="enable-background:new 0 0 90.7 90.7;" xml:space="preserve">
<style type="text/css">
	.st0{fill:#FFFFFF;}
	.st1{fill:#232B38;}
	.st2{display:none;fill:#232B38;}
</style>
<title>scanner</title>
<g id="icon">
	<g id="Group_1">
		<g id="bg">
			<path class="st0" d="M45.3,89.2c-2.3,0-4.4-0.9-6-2.5L4,51.4c-3.3-3.3-3.3-8.7,0-12L39.3,4c3.3-3.3,8.7-3.3,12,0l35.4,35.3
				c3.3,3.3,3.3,8.7,0,12L51.4,86.7C49.8,88.3,47.6,89.2,45.3,89.2z"/>
			<path class="st1" d="M45.3,3c-1.9,0-3.6,0.7-5,2.1L5,40.4c-2.7,2.7-2.7,7.2,0,9.9c0,0,0,0,0,0l35.4,35.4c2.7,2.7,7.2,2.7,9.9,0
				c0,0,0,0,0,0l35.4-35.4c2.7-2.7,2.7-7.2,0-9.9c0,0,0,0,0,0L50.3,5C49,3.7,47.2,3,45.3,3 M45.3,0c2.7,0,5.2,1.1,7.1,2.9l35.4,35.3
				c3.9,3.9,3.9,10.2,0,14.1L52.4,87.8c-3.9,3.9-10.2,3.9-14.1,0L2.9,52.4C-1,48.5-1,42.2,2.9,38.3L38.3,2.9C40.2,1.1,42.7,0,45.3,0
				z"/>
		</g>
	</g>
	<path class="st2" d="M39.2,32c0.5,0,0.9,0.1,1.3,0.3l7.8,2.9c0.4,0.2,0.8,0.3,1.2,0.5c0.2,0.1,0.4,0.3,0.5,0.5l9,11.9
		c0.1,0.2,0.2,0.4,0.2,0.6c0,0.2,0,0.5-0.1,0.7c0.1,0.3,0.2,0.7,0.3,1v0.8c0,0.7-0.4,1.3-0.9,1.7c-0.4,0.3-0.9,0.5-1.4,0.7l-13,5.5
		c-0.3,0.1-0.6,0.2-0.9,0.3c-0.7,0.2-1.6,0.1-2.1-0.4l-9.9-8c-0.4-0.4-0.7-0.9-0.8-1.4v-1c0-0.9,0.6-1.7,1.4-2
		c0.7-0.2,1.4-0.4,2.1-0.6l12.2-3.6c-0.2-0.3-0.5-0.5-0.7-0.8l-6.8-7.6c-0.1-0.1-0.2-0.3-0.2-0.5C38.2,32.8,38.5,32.2,39.2,32
		C39.1,32,39.2,32,39.2,32z M46.2,43.9c-1.7,0.5-3.5,1.1-5.2,1.6l7.6,5c0.5,0.3,1,0.6,1.5,1l5.7-2.1c-0.9-0.6-1.9-1.1-2.8-1.7
		l-6.5-3.9C46.4,43.8,46.3,43.8,46.2,43.9L46.2,43.9z M34,47.7L34,47.7l8.5,6.2c0.1,0.1,0.2,0.2,0.4,0.2c0.3-0.1,0.6-0.2,0.9-0.3
		l5.2-2l-8.7-5.6c-0.2-0.1-0.4-0.2-0.5-0.3C37.8,46.5,35.9,47.1,34,47.7z M39.8,54.6c-0.1,0.1-0.2,0.2-0.3,0.3
		c-0.2,0.4-0.3,0.8-0.2,1.2c0.1,0.2,0.1,0.3,0.2,0.5c0.2,0.2,0.5,0.2,0.7,0.1c0.2-0.2,0.3-0.4,0.3-0.6c0.1-0.4,0-0.9-0.2-1.2
		C40.3,54.6,40,54.5,39.8,54.6L39.8,54.6z"/>
</g>
<path class="st1" d="M37,56.9H53v-3H36.9L37,56.9z M37,48.4H53v-3H36.9L37,48.4z M32,65.4c-0.8,0-1.5-0.3-2.1-0.9
	c-0.6-0.6-0.9-1.3-0.9-2.1v-34c0-0.8,0.3-1.5,0.9-2.1c0.6-0.6,1.3-0.9,2.1-0.9h18l11,11v26c0,0.8-0.3,1.5-0.9,2.1
	c-0.6,0.6-1.3,0.9-2.1,0.9H32z M48.5,37.7v-9.3H32v34h26V37.7H48.5z M32,28.4v9.3V28.4v34V28.4z"/>
</svg>
