<?xml version="1.0" encoding="utf-8"?>
<!-- Generator: Adobe Illustrator 24.0.1, SVG Export Plug-In . SVG Version: 6.00 Build 0)  -->
<svg version="1.1" id="Capa_1" xmlns="http://www.w3.org/2000/svg" xmlns:xlink="http://www.w3.org/1999/xlink" x="0px" y="0px"
	 viewBox="0 0 90.7 90.7" style="enable-background:new 0 0 90.7 90.7;" xml:space="preserve">
<style type="text/css">
	.st0{fill:#0D47A1;}
	.st1{display:none;fill:#0D47A1;}
	.st2{display:none;}
	.st3{display:inline;fill:#FFFFFF;}
	.st4{fill:#FFFFFF;}
</style>
<g id="Capa_1_1_">
	<g id="icon" transform="translate(-914.645 -2312.643)">
		<g id="bg">
			<path class="st0" d="M960,2401.9c-2.3,0-4.4-0.9-6-2.5l-35.4-35.4c-1.6-1.6-2.5-3.7-2.5-6s0.9-4.4,2.5-6l35.4-35.4
				c1.6-1.6,3.7-2.5,6-2.5s4.4,0.9,6,2.5l35.4,35.4c1.6,1.6,2.5,3.7,2.5,6s-0.9,4.4-2.5,6l-35.4,35.4
				C964.4,2401,962.3,2401.9,960,2401.9z"/>
			<path class="st1" d="M960,2315.6c-1.9,0-3.6,0.7-4.9,2.1l-35.4,35.4c-1.3,1.3-2.1,3.1-2.1,4.9s0.7,3.6,2.1,4.9l35.4,35.4
				c1.3,1.3,3.1,2,4.9,2s3.6-0.7,4.9-2l35.4-35.4c1.3-1.3,2.1-3.1,2.1-4.9s-0.7-3.6-2.1-4.9l-35.4-35.4
				C963.6,2316.4,961.9,2315.6,960,2315.6 M960,2312.6c2.6,0,5.1,1,7.1,2.9l35.4,35.4c3.9,3.9,3.9,10.2,0,14.1l-35.4,35.4
				c-2,2-4.5,2.9-7.1,2.9s-5.1-1-7.1-2.9l-35.4-35.4c-3.9-3.9-3.9-10.2,0-14.1l35.4-35.4C954.9,2313.6,957.4,2312.6,960,2312.6z"/>
		</g>
		<path id="_" class="st1" d="M955.7,2348.7v-2.1h8.6v2.1H955.7z M949.8,2348.7h-1.1c-2.1,0-3.7,1.7-3.8,3.8v13.9
			c0,2.1,1.7,3.7,3.8,3.8h1.1V2348.7z M968.6,2348.7h-2.1v-2.7c0-0.9-0.7-1.6-1.6-1.6h-9.6c-0.9,0-1.6,0.7-1.6,1.6v2.7h-2.1v21.4
			h17.1L968.6,2348.7z M975,2352.5c0-2.1-1.7-3.7-3.7-3.8h-1.1v21.4h1.1c2.1,0,3.7-1.7,3.7-3.8V2352.5z"/>
		<g class="st2">
			<path class="st3" d="M974.8,2366.1c-0.2-0.5-0.8-0.8-1.3-0.8c-0.3,0-0.6,0.2-0.9,0.3c-1.2,0.5-2.4,1-3.6,1.6
				c-0.9,0.4-1.8,0.8-2.7,1.3c-0.8,0.4-1.7,0.8-2.6,1c-0.3,0.1-0.6,0-0.8,0c-0.6,0-1.1,0-1.7,0c-0.8-0.1-1.6-0.2-2.4-0.4
				c-0.2,0-0.3-0.4-0.1-0.5s0.4-0.2,0.7-0.2c1,0.2,2.1,0.1,3.1,0c0.7-0.1,1.3-0.3,1.8-0.8c0.3-0.3,0.5-0.7,0.5-1.2
				c0-0.4-0.3-0.8-0.6-0.9c-0.3-0.2-0.6-0.3-1-0.4c-0.8-0.1-1.6-0.1-2.4-0.2c-0.7-0.1-1.5-0.2-2.1-0.6c-0.4-0.2-0.9-0.3-1.4-0.5
				c-2.2-0.7-4.6-0.5-7-0.4c0-0.3,0-0.7-0.2-1s-0.5-0.3-0.8-0.3c-1.4,0-2.9,0-4.3,0.1c0.1,1.2,0.2,2.4,0.5,3.6c0.5,2,1.3,4,2.4,5.8
				c0.1,0.1,0.2,0.2,0.4,0.2c0.5,0,0.9,0,1.4,0c0.2,0,0.5-0.1,0.6-0.3c0.2-0.3,0.1-0.6,0.1-0.9c2.5,0.7,5,1.5,7.5,2.2
				c0.9,0.3,1.9,0.5,2.9,0.7c1.1,0.1,2.3,0,3.4-0.6c0.3-0.2,0.7-0.3,1.1-0.4c3.2-1.2,6.1-3,9-4.8c0.2-0.2,0.4-0.4,0.5-0.6
				c0.1-0.2,0.2-0.3,0.3-0.5C975,2366.6,974.9,2366.3,974.8,2366.1z"/>
			<path class="st3" d="M965.1,2368l0.1,0.1c1.1-0.5,2.2-1.1,3.4-1.6c1.1-0.5,2.1-1,3.3-1.4c0.1-0.1,0.3-0.1,0.3-0.3
				c-0.2-0.3-0.4-0.6-0.7-0.7c-0.3-0.1-0.6-0.2-1-0.1c-1.7,0.6-3.4,1.3-5.1,2C965.6,2366.8,965.5,2367.5,965.1,2368z"/>
			<path class="st3" d="M958.5,2360.6c0.1,0.6,0.5,1.1,1.2,1.2c0.2,0.4,0.4,0.7,0.8,0.8h0.3c0.4-0.1,0.7-0.4,0.8-0.8
				c0.6-0.1,1.1-0.6,1.1-1.2C961.4,2360.6,960,2360.6,958.5,2360.6z"/>
			<path class="st3" d="M956.1,2345.6c0.3,0.5,1.1,0.2,1.2-0.3c0.1-0.5-0.4-0.9-0.6-1.3c-0.3-0.4-0.7-1.1-1.3-0.8
				c-0.4,0.2-0.6,0.7-0.3,1.1C955.4,2344.7,955.8,2345.1,956.1,2345.6z"/>
			<path class="st3" d="M965.3,2345.6c0.4-0.5,0.7-0.9,1-1.5s-0.4-1.3-1-0.9c-0.4,0.3-0.6,0.7-0.9,1.1c-0.2,0.3-0.6,0.7-0.4,1.1
				C964.3,2345.8,965,2346,965.3,2345.6z"/>
			<path class="st3" d="M955.9,2348.9c-0.5,1.4-0.4,3,0.3,4.2c0.7,1,1.5,2,2.1,3.1c0.1,0.6,0,1.1,0,1.7c1.6,0,3.1,0,4.7,0
				c0-0.6,0-1.1,0.1-1.7c0.6-1.1,1.4-2,2.1-3.1c1.2-2,0.7-4.8-1.1-6.3c-1.1-1-2.7-1.4-4.2-1.2C958.1,2346,956.6,2347.3,955.9,2348.9
				z"/>
			<path class="st3" d="M952.3,2348.7c0.5,0.2,1.1,0.4,1.6,0.5c0.6,0.2,1.1-0.5,0.8-1c-0.3-0.4-0.8-0.4-1.2-0.6
				c-0.5-0.1-1-0.4-1.4-0.1C951.8,2347.8,951.8,2348.5,952.3,2348.7z"/>
			<path class="st3" d="M967.3,2349.3c0.6-0.3,1.4-0.4,2-0.7c0.5-0.4,0-1.4-0.6-1.2s-1.3,0.3-1.9,0.7
				C966.3,2348.5,966.7,2349.3,967.3,2349.3z"/>
			<path class="st3" d="M952.7,2354c0.6-0.2,1.3-0.3,1.9-0.7c0.6-0.5-0.2-1.5-0.8-1.1c-0.6,0.2-1.3,0.3-1.8,0.7
				C951.6,2353.3,952.1,2354.1,952.7,2354z"/>
			<path class="st3" d="M966.9,2353.4c0.6,0.2,1.2,0.4,1.8,0.6c0.5,0.1,1-0.5,0.8-0.9c-0.2-0.5-0.8-0.5-1.2-0.7
				c-0.5-0.1-1-0.4-1.4-0.2C966.4,2352.5,966.4,2353.2,966.9,2353.4z"/>
			<path class="st3" d="M956.1,2358.1c0.4-0.5,0.8-1,1.1-1.5c0.4-0.6-0.4-1.3-1-0.9c-0.5,0.5-0.9,1.1-1.3,1.7
				C954.7,2358,955.6,2358.6,956.1,2358.1z"/>
			<path class="st3" d="M965.4,2356c-0.2-0.3-0.6-0.5-1-0.3c-0.3,0.2-0.5,0.6-0.3,0.9c0.3,0.5,0.7,1.1,1.1,1.5
				c0.4,0.4,1.3-0.1,1.1-0.7C966.2,2356.9,965.7,2356.4,965.4,2356z"/>
			<path class="st3" d="M963,2359.6c0.3-0.3,0.1-0.9-0.3-0.9c-1.3,0-2.6,0-3.9,0c-0.6,0-0.6,1,0,1c1.2,0.1,2.3,0,3.5,0
				C962.5,2359.8,962.8,2359.9,963,2359.6z"/>
			<path class="st3" d="M960.7,2344.6c0.4,0,0.7-0.3,0.7-0.7v-1.7c0-0.4-0.3-0.7-0.7-0.7s-0.7,0.3-0.7,0.7v1.7
				C960,2344.3,960.3,2344.6,960.7,2344.6z"/>
		</g>
	</g>
</g>
<g id="Capa_2_1_">
</g>
<path class="st4" d="M59.8,39.3l-0.5-1.8c-0.3-0.1-0.7-0.3-1-0.5c-0.4-0.2-0.6-0.5-0.9-0.8l-2.2,0.8l-1-1.8l1.8-1.4
	c-0.1-0.2-0.1-0.3-0.2-0.5c0-0.2-0.1-0.4-0.1-0.6s0-0.4,0.1-0.6c0.1-0.2,0.1-0.4,0.2-0.6l-1.8-1.4l1-1.8l2.2,0.8
	c0.2-0.3,0.5-0.5,0.9-0.8c0.3-0.3,0.7-0.4,1-0.5l0.5-1.8h1.9l0.5,1.8c0.3,0.1,0.7,0.3,1,0.5c0.3,0.3,0.6,0.5,0.9,0.8l2.2-0.8l1,1.8
	l-1.8,1.4c0.1,0.2,0.1,0.4,0.2,0.5c0.1,0.2,0.1,0.4,0.1,0.6s0,0.4-0.1,0.6c-0.1,0.2-0.1,0.4-0.2,0.6l1.8,1.4l-1,1.8L64,36.3
	c-0.2,0.3-0.5,0.5-0.9,0.8c-0.4,0.2-0.7,0.4-1,0.5l-0.5,1.8H59.8z M60.7,35.7c0.8,0,1.5-0.3,2.1-0.8s0.8-1.2,0.8-2.1
	c0-0.8-0.3-1.5-0.8-2.1c-0.5-0.5-1.2-0.8-2.1-0.8c-0.8,0-1.5,0.3-2.1,0.8c-0.5,0.6-0.8,1.2-0.8,2.1c0,0.8,0.3,1.5,0.8,2.1
	S59.9,35.7,60.7,35.7z M54.4,50.2l-0.1-1.5c-0.2-0.1-0.5-0.3-0.7-0.5c-0.3-0.2-0.5-0.3-0.7-0.5l-1.3,0.7l-1.1-1.6l1.3-1
	c-0.1-0.1-0.1-0.3-0.1-0.4v-0.8c0-0.1,0-0.2,0.1-0.4l-1.3-1l1.1-1.6l1.3,0.7l0.7-0.5c0.2-0.2,0.5-0.3,0.7-0.5l0.1-1.5h2l0.1,1.5
	c0.2,0.1,0.5,0.3,0.7,0.5l0.7,0.5l1.3-0.7l1.1,1.6l-1.3,1c0.1,0.1,0.1,0.3,0.1,0.4v0.8c0,0.1,0,0.2-0.1,0.4l1.3,1l-1.1,1.6l-1.3-0.7
	c-0.2,0.2-0.4,0.3-0.7,0.5c-0.3,0.2-0.5,0.3-0.7,0.5l-0.1,1.5H54.4z M55.4,47.1c0.5,0,1-0.2,1.3-0.5s0.5-0.8,0.5-1.3
	c0-0.5-0.2-1-0.5-1.4s-0.8-0.6-1.3-0.5c-0.5,0-1,0.2-1.3,0.5c-0.4,0.4-0.5,0.8-0.5,1.3s0.2,1,0.5,1.4C54.4,46.9,54.8,47.1,55.4,47.1
	z M39.3,47c-2.2,0-4-0.7-5.4-2.2c-1.4-1.4-2.1-3.2-2.1-5.3h-0.5c-0.3,0-0.5-0.1-0.7-0.3c-0.2-0.2-0.3-0.4-0.3-0.7s0.1-0.5,0.3-0.7
	c0.2-0.2,0.4-0.3,0.7-0.3h0.5c0-1.3,0.3-2.5,1-3.6c0.7-1.1,1.5-1.9,2.6-2.6v2c0,0.2,0.1,0.4,0.2,0.5c0.2,0.2,0.3,0.2,0.5,0.2
	c0.2,0,0.4-0.1,0.5-0.2c0.1-0.1,0.2-0.3,0.2-0.5v-2.6c0.3-0.1,0.6-0.1,1.1-0.2s0.9-0.1,1.4-0.1c0.4,0,0.9,0,1.3,0.1s0.8,0.1,1.1,0.2
	v2.6c0,0.2,0.1,0.4,0.2,0.5c0.1,0.2,0.3,0.2,0.5,0.2c0.2,0,0.4-0.1,0.5-0.2c0.2-0.1,0.2-0.3,0.2-0.5v-2c1.1,0.7,1.9,1.5,2.5,2.6
	c0.6,1.1,1,2.3,1,3.6h0.5c0.3,0,0.5,0.1,0.7,0.3c0.2,0.2,0.3,0.4,0.3,0.7c0,0.3-0.1,0.5-0.3,0.7c-0.2,0.2-0.4,0.3-0.7,0.3h-0.5
	c0,2.1-0.7,3.9-2.1,5.3C43.3,46.3,41.5,47,39.3,47z M39.3,44c1.4,0,2.5-0.4,3.3-1.3c0.8-0.8,1.2-1.9,1.2-3.3h-9
	c0,1.3,0.4,2.4,1.2,3.3C36.8,43.6,37.9,44,39.3,44z M23.5,62.2v-4.6c0-1.1,0.3-2.1,0.8-2.8c0.5-0.8,1.3-1.4,2.3-1.8
	c1.8-0.9,3.7-1.6,5.8-2.2s4.4-0.8,7-0.8c2.6,0,4.9,0.3,7,0.8c2,0.6,4,1.3,5.8,2.2c1,0.5,1.7,1.1,2.3,1.8s0.8,1.7,0.8,2.8v4.6H23.5z
	 M26.5,59.2h25.6v-1.6c0-0.5-0.1-0.9-0.4-1.2s-0.6-0.6-1-0.7c-1.4-0.6-3-1.2-4.8-1.8c-1.8-0.6-4-0.9-6.5-0.9s-4.8,0.3-6.5,0.9
	c-1.8,0.6-3.4,1.2-4.8,1.8c-0.4,0.2-0.7,0.4-1,0.7c-0.3,0.3-0.4,0.7-0.4,1.2V59.2z"/>
</svg>
